<?xml version="1.0" encoding="utf-8"?>
<!-- Generator: Adobe Illustrator 24.0.1, SVG Export Plug-In . SVG Version: 6.00 Build 0)  -->
<svg version="1.1" id="Layer_1" xmlns="http://www.w3.org/2000/svg" xmlns:xlink="http://www.w3.org/1999/xlink" x="0px" y="0px"
	 viewBox="0 0 517.2 116.2" style="enable-background:new 0 0 517.2 116.2;" xml:space="preserve">
<style type="text/css">
	.st0{fill:#322E77;}
</style>
<g id="Layer_1_1_">
	<path class="st0" d="M32.7,30l0.1-0.2h0.3c0.2,0,0.4,0,0.6,0c2.7,0,5.4,0.2,8.1,0.7c2.4,0.5,4.8,1.2,7.1,2.1c2.3,1,4.6,2.2,6.6,3.6
		c2.3,1.6,4.4,3.3,6.4,5.2c8.2,7.4,14.7,3.4,14.8,3.4c2.9-2,4.4-4.3,4.6-6.9c0.3-5.2-5.2-10-5.2-10c-3.5-2.9-7.5-5.3-11.8-7
		c-4.6-1.6-9.5-2.4-14.3-2.3c-3.3,0-6.6,0.5-9.8,1.5c-2.8,0.9-5.4,2.4-7.6,4.2c-0.6,0.5-1,0.9-1.4,1.3l-0.2,0.2h-0.2
		c-2.3,0.2-4.6,0.6-6.8,1.3c-2.9,0.9-5.6,2.3-7.9,4.2c-2.2,1.8-3.9,4-5.2,6.5c-1.3,2.6-1.9,5.4-1.9,8.3v0.2c0,5.6,1.9,9.9,5.8,13.1
		s10.3,5.9,19.2,7.7c3.9,0.8,7.7,1.8,11.4,3.2c2.5,0.9,4.9,2.2,7.1,3.8c1.6,1.3,2.8,2.9,3.6,4.8c0.7,1.9,1,3.8,1,5.8v1.6
		c-0.3,2.4-1.2,4.6-2.6,6.5l-0.2,0.2H54c-0.2,0-0.4,0-0.6,0c-2.7,0-5.4-0.2-8.1-0.7c-2.4-0.5-4.8-1.2-7.1-2.1
		c-2.3-1-4.5-2.2-6.6-3.6c-2.3-1.6-4.4-3.3-6.4-5.2c-3.9-3.6-7.5-4.5-10.1-4.5c-1.6,0-3.3,0.4-4.7,1.1c-2.9,2-4.5,4.3-4.6,6.9
		c-0.3,5.1,5.1,9.7,5.1,9.8c3.6,3,7.6,5.4,12,7.2c4.6,1.6,9.5,2.4,14.4,2.3c3.3,0,6.6-0.5,9.8-1.5c2.8-0.9,5.4-2.4,7.7-4.2
		c0.5-0.4,1-0.9,1.4-1.3l0.2-0.2h0.1c2.3-0.2,4.5-0.7,6.7-1.4c2.9-0.9,5.6-2.3,7.9-4.2c2.2-1.8,3.9-4,5.2-6.5
		c1.3-2.6,1.9-5.5,1.9-8.3v-0.2c0-5.5-1.9-9.9-5.7-13.1S62,57.5,53.1,55.7c-3.9-0.8-7.7-1.8-11.4-3.2c-2.6-0.9-4.9-2.2-7.1-3.8
		c-1.6-1.3-2.9-2.9-3.6-4.8c-0.7-1.9-1-3.8-1-5.8v-1.5C30.4,34.2,31.3,32,32.7,30z M39.1,24.9c0.8-0.4,1.7-0.7,2.5-1
		c2.6-0.8,5.3-1.2,8-1.2c4.2,0,8.3,0.7,12.2,2c4.2,1.6,8,3.9,11.3,6.9c3.4,3,3.7,5.3,3.4,6.6c-0.5,1.7-2,2.9-3.7,3.2
		c-0.3,0.1-0.6,0.1-0.9,0.1c-3.2,0-7-3.3-7.1-3.5c-4.2-3.8-9-7-14.3-9.2c-3.6-1.5-7.4-2.4-11.2-2.8l-2.1-0.2L39.1,24.9z M48,98.1
		c-0.8,0.4-1.7,0.7-2.5,1c-2.6,0.8-5.3,1.2-8,1.2c-4.2,0-8.3-0.6-12.2-2c-4.2-1.6-8-3.9-11.3-6.9c-3.5-3-3.8-5.3-3.4-6.6
		c0.6-1.7,2-2.9,3.7-3.2c3.3-0.8,7.8,3.2,8,3.4c4.2,3.8,9.1,6.9,14.3,9.2c3.6,1.5,7.4,2.4,11.2,2.8l2.1,0.2L48,98.1z M31.3,52.1
		c2.4,1.9,5.1,3.4,8,4.4c3.9,1.4,7.8,2.6,11.9,3.3c3.7,0.7,7.4,1.7,11,3c2.5,0.9,4.8,2.1,6.8,3.7c1.6,1.2,2.8,2.8,3.6,4.7
		c0.7,1.8,1,3.8,1,5.7v0.2c0,2.2-0.5,4.4-1.5,6.4c-1,2-2.4,3.7-4.1,5.1c-1.9,1.5-4.1,2.6-6.4,3.3c-0.2,0.1-0.5,0.1-0.8,0.2l-1.1,0.2
		l0.4-1c0.9-2.2,1.4-4.5,1.4-6.9v-0.2c0-2.6-0.4-5.2-1.4-7.6c-1-2.3-2.5-4.3-4.4-5.8c-2.4-1.9-5.1-3.4-8-4.4
		c-3.9-1.5-7.8-2.6-11.9-3.4c-3.7-0.7-7.4-1.7-11-3c-2.5-0.9-4.8-2.1-6.8-3.7c-1.6-1.2-2.8-2.9-3.6-4.7c-0.7-1.8-1-3.8-1-5.7v-0.2
		c0-2.2,0.5-4.4,1.5-6.4c1-2,2.4-3.7,4.2-5.1c1.9-1.5,4-2.6,6.4-3.3l0.8-0.2l1.2-0.3L27,31.6c-1,2.2-1.5,4.5-1.5,6.9v0.2
		c0,2.6,0.4,5.2,1.4,7.6C27.9,48.6,29.4,50.6,31.3,52.1z"/>
	<path class="st0" d="M32.7,30l0.1-0.2h0.3c0.2,0,0.4,0,0.6,0c2.7,0,5.4,0.2,8.1,0.7c2.4,0.5,4.8,1.2,7.1,2.1c2.3,1,4.6,2.2,6.6,3.6
		c2.3,1.6,4.4,3.3,6.4,5.2c8.2,7.4,14.7,3.4,14.8,3.4c2.9-2,4.4-4.3,4.6-6.9c0.3-5.2-5.2-10-5.2-10c-3.5-2.9-7.5-5.3-11.8-7
		c-4.6-1.6-9.5-2.4-14.3-2.3c-3.3,0-6.6,0.5-9.8,1.5c-2.8,0.9-5.4,2.4-7.6,4.2c-0.6,0.5-1,0.9-1.4,1.3l-0.2,0.2h-0.2
		c-2.3,0.2-4.6,0.6-6.8,1.3c-2.9,0.9-5.6,2.3-7.9,4.2c-2.2,1.8-3.9,4-5.2,6.5c-1.3,2.6-1.9,5.4-1.9,8.3v0.2c0,5.6,1.9,9.9,5.8,13.1
		s10.3,5.9,19.2,7.7c3.9,0.8,7.7,1.8,11.4,3.2c2.5,0.9,4.9,2.2,7.1,3.8c1.6,1.3,2.8,2.9,3.6,4.8c0.7,1.9,1,3.8,1,5.8v1.6
		c-0.3,2.4-1.2,4.6-2.6,6.5l-0.2,0.2H54c-0.2,0-0.4,0-0.6,0c-2.7,0-5.4-0.2-8.1-0.7c-2.4-0.5-4.8-1.2-7.1-2.1
		c-2.3-1-4.5-2.2-6.6-3.6c-2.3-1.6-4.4-3.3-6.4-5.2c-3.9-3.6-7.5-4.5-10.1-4.5c-1.6,0-3.3,0.4-4.7,1.1c-2.9,2-4.5,4.3-4.6,6.9
		c-0.3,5.1,5.1,9.7,5.1,9.8c3.6,3,7.6,5.4,12,7.2c4.6,1.6,9.5,2.4,14.4,2.3c3.3,0,6.6-0.5,9.8-1.5c2.8-0.9,5.4-2.4,7.7-4.2
		c0.5-0.4,1-0.9,1.4-1.3l0.2-0.2h0.1c2.3-0.2,4.5-0.7,6.7-1.4c2.9-0.9,5.6-2.3,7.9-4.2c2.2-1.8,3.9-4,5.2-6.5
		c1.3-2.6,1.9-5.5,1.9-8.3v-0.2c0-5.5-1.9-9.9-5.7-13.1S62,57.5,53.1,55.7c-3.9-0.8-7.7-1.8-11.4-3.2c-2.6-0.9-4.9-2.2-7.1-3.8
		c-1.6-1.3-2.9-2.9-3.6-4.8c-0.7-1.9-1-3.8-1-5.8v-1.5C30.4,34.2,31.3,32,32.7,30z M39.1,24.9c0.8-0.4,1.7-0.7,2.5-1
		c2.6-0.8,5.3-1.2,8-1.2c4.2,0,8.3,0.7,12.2,2c4.2,1.6,8,3.9,11.3,6.9c3.4,3,3.7,5.3,3.4,6.6c-0.5,1.7-2,2.9-3.7,3.2
		c-0.3,0.1-0.6,0.1-0.9,0.1c-3.2,0-7-3.3-7.1-3.5c-4.2-3.8-9-7-14.3-9.2c-3.6-1.5-7.4-2.4-11.2-2.8l-2.1-0.2L39.1,24.9z M48,98.1
		c-0.8,0.4-1.7,0.7-2.5,1c-2.6,0.8-5.3,1.2-8,1.2c-4.2,0-8.3-0.6-12.2-2c-4.2-1.6-8-3.9-11.3-6.9c-3.5-3-3.8-5.3-3.4-6.6
		c0.6-1.7,2-2.9,3.7-3.2c3.3-0.8,7.8,3.2,8,3.4c4.2,3.8,9.1,6.9,14.3,9.2c3.6,1.5,7.4,2.4,11.2,2.8l2.1,0.2L48,98.1z M31.3,52.1
		c2.4,1.9,5.1,3.4,8,4.4c3.9,1.4,7.8,2.6,11.9,3.3c3.7,0.7,7.4,1.7,11,3c2.5,0.9,4.8,2.1,6.8,3.7c1.6,1.2,2.8,2.8,3.6,4.7
		c0.7,1.8,1,3.8,1,5.7v0.2c0,2.2-0.5,4.4-1.5,6.4c-1,2-2.4,3.7-4.1,5.1c-1.9,1.5-4.1,2.6-6.4,3.3c-0.2,0.1-0.5,0.1-0.8,0.2l-1.1,0.2
		l0.4-1c0.9-2.2,1.4-4.5,1.4-6.9v-0.2c0-2.6-0.4-5.2-1.4-7.6c-1-2.3-2.5-4.3-4.4-5.8c-2.4-1.9-5.1-3.4-8-4.4
		c-3.9-1.5-7.8-2.6-11.9-3.4c-3.7-0.7-7.4-1.7-11-3c-2.5-0.9-4.8-2.1-6.8-3.7c-1.6-1.2-2.8-2.9-3.6-4.7c-0.7-1.8-1-3.8-1-5.7v-0.2
		c0-2.2,0.5-4.4,1.5-6.4c1-2,2.4-3.7,4.2-5.1c1.9-1.5,4-2.6,6.4-3.3l0.8-0.2l1.2-0.3L27,31.6c-1,2.2-1.5,4.5-1.5,6.9v0.2
		c0,2.6,0.4,5.2,1.4,7.6C27.9,48.6,29.4,50.6,31.3,52.1z"/>
	<path class="st0" d="M147.5,81.6c-0.9,1.8-2.2,3.3-3.7,4.6c-1.6,1.3-3.5,2.3-5.5,2.9c-2.2,0.7-4.5,1-6.8,1c-3.6,0-7.3-0.7-10.7-1.9
		c-3.4-1.2-6.7-3-9.5-5.2l3.7-5.2c2.5,1.9,5.3,3.5,8.3,4.6c2.8,1,5.7,1.6,8.6,1.6c2.6,0.1,5.1-0.6,7.3-2.1c1.8-1.3,2.9-3.4,2.8-5.7
		V76c0-1.1-0.3-2.2-1-3.1c-0.7-0.9-1.6-1.7-2.7-2.3c-1.2-0.7-2.6-1.3-3.9-1.8c-1.5-0.5-3-1-4.6-1.4c-1.9-0.6-3.8-1.2-5.7-1.8
		c-1.8-0.6-3.6-1.5-5.2-2.5c-1.5-1-2.8-2.3-3.8-3.8c-1-1.7-1.5-3.7-1.5-5.7v-0.2c0-2,0.4-3.9,1.2-5.7c0.8-1.7,2-3.2,3.4-4.4
		c1.6-1.3,3.4-2.3,5.3-2.8c2.2-0.7,4.4-1,6.7-1c3.1,0,6.2,0.5,9.2,1.5c3,0.9,5.8,2.2,8.4,3.9l-3.3,5.5c-2.2-1.4-4.6-2.6-7.1-3.4
		c-2.4-0.8-4.8-1.3-7.3-1.3c-2.5-0.1-4.9,0.6-6.9,2c-1.6,1.2-2.5,3-2.6,5v0.2c0,1.1,0.3,2.2,1,3c0.8,0.9,1.7,1.7,2.8,2.2
		c1.3,0.7,2.6,1.2,4,1.7c1.5,0.5,3.1,1,4.7,1.5c1.9,0.6,3.8,1.2,5.6,1.9c1.8,0.7,3.5,1.5,5.1,2.6c1.5,1,2.7,2.3,3.6,3.9
		c1,1.7,1.4,3.6,1.4,5.6v0.3C148.8,77.6,148.4,79.7,147.5,81.6z"/>
	<path class="st0" d="M190.2,87.5c-3.6,1.9-7.5,2.8-11.6,2.7c-3.4,0-6.8-0.6-10-2c-3-1.3-5.7-3.2-7.9-5.5c-2.3-2.3-4-5.1-5.2-8.1
		c-1.3-3.1-1.9-6.5-1.9-9.8c0-3.4,0.6-6.7,1.9-9.9c1.2-3,3-5.8,5.2-8.2c2.3-2.3,4.9-4.2,7.9-5.5c3.2-1.4,6.6-2.1,10-2
		c2.1,0,4.3,0.2,6.3,0.7c1.8,0.4,3.5,1,5.2,1.8c1.5,0.8,3,1.7,4.4,2.8c1.3,1.1,2.5,2.2,3.7,3.4l-4.8,5.1c-1.9-2-4-3.7-6.4-5.2
		c-2.6-1.5-5.5-2.3-8.4-2.2c-2.4,0-4.7,0.5-6.9,1.5c-2.1,0.9-4,2.3-5.6,4c-1.6,1.8-2.8,3.8-3.7,6c-0.9,2.4-1.3,4.9-1.3,7.4
		c0,2.5,0.4,5.1,1.4,7.4c0.9,2.2,2.1,4.3,3.8,6.1c1.6,1.7,3.5,3.1,5.7,4.1c2.2,1,4.7,1.5,7.1,1.5c2.9,0.1,5.8-0.7,8.4-2.1
		c2.4-1.4,4.6-3.1,6.6-5.2l4.6,4.3C196.2,83.4,193.4,85.7,190.2,87.5z"/>
	<path class="st0" d="M212.2,89.1h-7.3V40.3h7.3V53c0.9-2,2-3.9,3.3-5.6c1.3-1.7,2.8-3.2,4.5-4.4c1.7-1.2,3.6-2.2,5.6-2.8
		c2.1-0.6,4.3-0.9,6.5-0.9v7.8h-0.6c-2.6,0-5.1,0.5-7.5,1.4c-2.4,0.9-4.5,2.4-6.2,4.2c-1.8,2-3.3,4.4-4.2,7
		c-1.1,3.1-1.6,6.4-1.5,9.7L212.2,89.1z"/>
	<path class="st0" d="M237.7,29.6v-8h8.3v8H237.7z M238.2,89.1V40.3h7.3v48.8H238.2z"/>
	<path class="st0" d="M304,75.4c-1.2,3-3,5.7-5.2,8c-2.1,2.1-4.7,3.8-7.5,5c-2.7,1.1-5.7,1.7-8.6,1.7c-2.1,0-4.2-0.3-6.2-0.9
		c-1.8-0.5-3.5-1.3-5.1-2.3c-1.5-0.9-2.9-2-4.1-3.3c-1.2-1.2-2.3-2.6-3.3-4v9.3h-7.3v-69h7.3v29.9c1-1.5,2.1-2.9,3.4-4.2
		c2.5-2.7,5.7-4.7,9.2-5.8c2-0.6,4.1-0.9,6.2-0.9c2.9,0,5.8,0.6,8.5,1.7c2.8,1.2,5.4,2.9,7.5,5c2.3,2.3,4.1,5,5.3,8
		C306.6,60.9,306.6,68.5,304,75.4L304,75.4z M297.1,57c-0.8-2.2-2.1-4.3-3.7-6c-1.5-1.6-3.4-2.9-5.5-3.8c-2.1-0.9-4.3-1.3-6.6-1.3
		c-2.3,0-4.5,0.5-6.6,1.4c-2.1,0.9-4,2.2-5.7,3.8c-1.7,1.7-3.1,3.7-4,5.9c-1,2.4-1.5,5.1-1.5,7.7c0,2.7,0.5,5.3,1.5,7.8
		c0.9,2.3,2.3,4.3,4,6c1.6,1.6,3.6,2.9,5.7,3.8c2.1,0.9,4.3,1.4,6.6,1.4c2.3,0,4.5-0.4,6.6-1.3c2.1-0.8,3.9-2.1,5.5-3.7
		c1.6-1.7,2.9-3.7,3.7-5.9c1-2.5,1.4-5.2,1.4-7.9C298.5,62.1,298.1,59.4,297.1,57L297.1,57z"/>
	<path class="st0" d="M320,74.4c0.9,2,2.3,3.7,3.9,5.2c1.5,1.4,3.3,2.5,5.3,3.2c2,0.7,4,1.1,6.1,1.1c3,0.1,6-0.6,8.7-1.9
		c2.5-1.3,4.7-3,6.7-5l4.5,4.1c-2.4,2.7-5.2,5-8.4,6.7c-3.6,1.8-7.7,2.6-11.7,2.5c-3.2,0-6.5-0.6-9.5-1.8c-2.9-1.2-5.5-3-7.8-5.2
		c-2.3-2.3-4.1-5.1-5.3-8.1c-1.4-3.3-2-6.8-2-10.4c0-3.4,0.6-6.8,1.8-10c1.1-3,2.7-5.7,4.9-8.1c2.1-2.3,4.6-4.1,7.4-5.4
		c2.9-1.3,6.2-2,9.4-2c3.3-0.1,6.6,0.6,9.6,2c2.8,1.3,5.2,3.2,7.2,5.5c2,2.4,3.5,5.2,4.4,8.2c1,3.3,1.5,6.7,1.5,10.1v1
		c0,0.4,0,0.8-0.1,1.2h-38.6C318.3,69.8,319,72.2,320,74.4z M349.4,62c-0.2-2.2-0.6-4.3-1.4-6.3c-0.7-1.9-1.7-3.7-3-5.3
		c-1.3-1.5-2.9-2.8-4.7-3.6c-2-0.9-4.2-1.4-6.4-1.4c-2,0-4.1,0.4-5.9,1.3c-1.8,0.8-3.4,2-4.8,3.5c-1.4,1.5-2.6,3.3-3.4,5.2
		c-0.9,2.1-1.5,4.3-1.7,6.6L349.4,62z"/>
	<path class="st0" d="M364.6,89.1V20.2h7.3v68.9H364.6z"/>
	<path class="st0" d="M389.5,74.4c0.9,2,2.3,3.7,3.9,5.2c1.5,1.4,3.3,2.5,5.3,3.2c2,0.7,4,1.1,6.1,1.1c3,0.1,6-0.6,8.7-1.9
		c2.5-1.3,4.7-3,6.6-5l4.5,4.1c-2.4,2.7-5.2,5-8.4,6.7c-3.6,1.8-7.7,2.6-11.7,2.5c-3.2,0-6.4-0.6-9.4-1.8c-2.9-1.2-5.6-3-7.8-5.2
		c-2.3-2.3-4.1-5.1-5.3-8.1c-1.3-3.3-2-6.8-2-10.4c0-3.4,0.6-6.8,1.8-10c1.1-3,2.7-5.7,4.9-8.1c2.1-2.3,4.6-4.1,7.4-5.4
		c2.9-1.3,6.2-2,9.4-2c3.3-0.1,6.6,0.6,9.6,2c2.8,1.3,5.2,3.2,7.2,5.5c2,2.4,3.5,5.2,4.4,8.2c1,3.3,1.5,6.7,1.5,10.1v1
		c0,0.4,0,0.8-0.1,1.2h-38.6C387.7,69.8,388.4,72.2,389.5,74.4z M418.8,62c-0.2-2.2-0.6-4.3-1.4-6.3c-0.7-1.9-1.7-3.7-3-5.3
		c-1.3-1.5-2.9-2.8-4.7-3.6c-2-0.9-4.2-1.4-6.4-1.4c-2,0-4.1,0.4-5.9,1.3c-1.8,0.8-3.4,2-4.8,3.5c-1.4,1.5-2.6,3.3-3.4,5.2
		c-0.9,2.1-1.5,4.3-1.7,6.6L418.8,62z"/>
	<path class="st0" d="M465.5,81.6c-0.9,1.8-2.2,3.3-3.7,4.6c-1.6,1.3-3.5,2.3-5.5,2.9c-2.2,0.7-4.5,1-6.9,1c-3.6,0-7.3-0.7-10.7-1.9
		c-3.4-1.2-6.7-3-9.5-5.2l3.7-5.2c2.5,1.9,5.3,3.5,8.3,4.6c2.8,1,5.7,1.6,8.6,1.6c2.6,0.1,5.1-0.6,7.3-2.1c1.8-1.3,2.9-3.4,2.8-5.7
		V76c0-1.1-0.3-2.2-1-3.1c-0.7-0.9-1.6-1.7-2.7-2.3c-1.2-0.7-2.6-1.3-3.9-1.8c-1.5-0.5-3-1-4.6-1.4c-1.9-0.6-3.8-1.2-5.7-1.8
		c-1.8-0.6-3.6-1.5-5.2-2.5c-1.5-1-2.8-2.3-3.8-3.8c-1-1.7-1.5-3.7-1.5-5.7v-0.2c0-2,0.4-3.9,1.2-5.7c0.8-1.7,2-3.2,3.5-4.4
		c1.6-1.3,3.4-2.3,5.3-2.8c2.1-0.7,4.4-1,6.6-1c3.1,0,6.2,0.5,9.2,1.4c3,0.9,5.8,2.2,8.4,3.9l-3.3,5.5c-2.2-1.4-4.6-2.6-7.1-3.4
		c-2.4-0.8-4.8-1.3-7.3-1.3c-2.5-0.1-4.9,0.6-6.9,2c-1.6,1.2-2.5,3-2.5,5v0.2c0,1.1,0.3,2.2,1,3c0.8,0.9,1.7,1.7,2.8,2.2
		c1.3,0.7,2.6,1.2,4,1.7c1.5,0.5,3.1,1,4.7,1.5c1.9,0.6,3.8,1.2,5.6,1.9c1.8,0.7,3.5,1.5,5,2.6c1.5,1,2.7,2.3,3.6,3.9
		c1,1.7,1.4,3.6,1.4,5.6v0.3C466.9,77.6,466.4,79.7,465.5,81.6z"/>
	<path class="st0" d="M505.9,81.6c-0.9,1.8-2.1,3.3-3.7,4.6c-1.6,1.3-3.5,2.3-5.5,2.9c-2.2,0.7-4.5,1-6.8,1c-3.6,0-7.3-0.7-10.7-1.9
		c-3.4-1.2-6.7-3-9.5-5.2l3.7-5.2c2.5,1.9,5.3,3.5,8.3,4.6c2.8,1,5.7,1.6,8.6,1.6c2.6,0.1,5.1-0.6,7.3-2.1c1.8-1.3,2.9-3.4,2.8-5.7
		V76c0-1.1-0.3-2.2-1-3.1c-0.7-0.9-1.7-1.7-2.7-2.3c-1.2-0.7-2.6-1.3-3.9-1.8c-1.5-0.5-3-1-4.6-1.4c-1.9-0.6-3.8-1.2-5.7-1.8
		c-1.8-0.6-3.6-1.5-5.2-2.5c-1.5-1-2.8-2.3-3.8-3.8c-1-1.7-1.5-3.7-1.5-5.7v-0.2c0-2,0.4-3.9,1.2-5.7c0.8-1.7,2-3.2,3.4-4.4
		c1.6-1.3,3.4-2.3,5.3-2.8c2.2-0.7,4.4-1,6.7-1c3.1,0,6.2,0.5,9.2,1.5c3,0.9,5.8,2.2,8.4,3.9l-3.3,5.5c-2.2-1.4-4.6-2.6-7.1-3.4
		c-2.4-0.8-4.8-1.3-7.3-1.3c-2.5-0.1-4.9,0.6-6.9,2c-1.6,1.2-2.5,3-2.5,5v0.2c0,1.1,0.3,2.2,1,3c0.8,0.9,1.7,1.7,2.8,2.2
		c1.3,0.7,2.6,1.2,4,1.7c1.5,0.5,3.1,1,4.7,1.5c1.9,0.6,3.8,1.2,5.6,1.9c1.8,0.7,3.5,1.5,5,2.6c1.5,1,2.7,2.3,3.6,3.9
		c1,1.7,1.4,3.6,1.4,5.6v0.3C507.3,77.6,506.8,79.7,505.9,81.6z"/>
</g>
</svg>
